# xmcd
#
# Track frame offsets:
#	150
#	12177
#	25259
#	34848
#	45298
#	59566
#	71376
#	79148
#	89695
#	103419
#	120454
#	135618
#	147576
#	159088
#	174431
#	186213
#
# Disc length: 2625 seconds
#
# Revision: 0
# Processed by: cddbd v1.5.2PL0 Copyright (c) Steve Scherf et al.
# Submitted via: audiograbber 1.83.01
#
DISCID=d60a3f10
DTITLE=Various Artist - Hits 'n' More - The Ulimate Country Collection CD 1
DYEAR=1900
DGENRE=Pop
TTITLE0=Anderson, Lynn - Rose Garden
TTITLE1=Rogers, Kenny - Ruby, Don't Take Your Love To Town
TTITLE2=Parton, Dolly - Release Me
TTITLE3=Dudley, Dave - Six Days On The Road
TTITLE4=Nelson, Willie - Will You Remember
TTITLE5=Pride, Charlie - There Goes My Everything
TTITLE6=Jones, George - Jambalaya (On The Bayou)
TTITLE7=Cramer, Floyd - San Antonio Rose
TTITLE8=Fender, Freddy - Wasted Days And Wasted Nights (Live)
TTITLE9=Campbell, Glen - Southern Nights (live)
TTITLE10=Murray, Anne - Both Sides Now
TTITLE11=Stonewall Jackson - Waterloo
TTITLE12=Williams, Don and The Pozo Seco Singers - Storybook children
TTITLE13=Boxcar Willie - Box Car Blues
TTITLE14=Shondell, Troy - This Time
TTITLE15=Miller, Roger - King Of The Road
EXTD=
EXTT0=
EXTT1=
EXTT2=
EXTT3=
EXTT4=
EXTT5=
EXTT6=
EXTT7=
EXTT8=
EXTT9=
EXTT10=
EXTT11=
EXTT12=
EXTT13=
EXTT14=
EXTT15=
PLAYORDER=
